<?xml version="1.0" encoding="UTF-8"?>
<svg width="149px" height="52px" viewBox="0 0 149 52" version="1.1" xmlns="http://www.w3.org/2000/svg" xmlns:xlink="http://www.w3.org/1999/xlink">
    <!-- Generator: sketchtool 56.2 (101010) - https://sketch.com -->
    <title>5758AE0C-933B-4237-B502-E98CA0E665F8@1.5x</title>
    <desc>Created with sketchtool.</desc>
    <defs>
        <polygon id="path-1" points="0.10465875 0.76968125 62.2281713 0.76968125 62.2281713 51.1875 0.10465875 51.1875"></polygon>
    </defs>
    <g id="WEBSITE" stroke="none" stroke-width="1" fill="none" fill-rule="evenodd">
        <g id="CORPORATIVO" transform="translate(-335.000000, -2408.000000)">
            <g id="ABC" transform="translate(335.000000, 2408.000000)">
                <g id="LOGO-abc">
                    <path d="M148.988128,19.0225427 C138.416819,14.4941466 125.09841,13.8173592 115.870972,16.8495285 C115.223571,17.0610752 114.59754,17.2920745 114,17.5238843 C114.333989,17.7678519 114.683807,18.0012827 115.030459,18.2622714 C115.088235,18.2963134 115.124641,18.3352185 115.187165,18.385471 C115.415892,18.5808072 115.639871,18.7891118 115.870972,18.9860691 C117.548832,20.6411585 118.901409,22.6763836 119.860638,25.0504077 C120.929878,27.6748835 121.464102,30.6940844 121.464102,34.0212843 C121.464102,35.9989622 121.060466,37.8534406 120.448681,39.6057929 C119.824232,41.3370716 119.021708,42.9370454 118.1345,44.4211144 C118.087805,44.4802826 118.06327,44.5191877 118.026864,44.5645771 C117.416661,45.5720581 116.671913,46.4838973 115.870972,47.2911789 C115.291636,47.8561139 114.683807,48.3626913 114.049069,48.8417108 C114.63632,49.0500154 115.246523,49.2445411 115.870972,49.4147511 C125.663501,52.2175422 138.728648,51.2805767 148.988128,46.7878437 L148.988128,36.145667 C148.988128,36.145667 127.83443,42.5917623 127.83443,32.74552 C127.83443,24.5940828 148.269498,29.5423302 149,29.5180145 L149,29.4815409 L148.988128,29.4815409 L148.988128,19.0225427 Z" id="Fill-1" fill="#828182"></path>
                    <path d="M32.164464,37.4335782 C28.4371803,37.4335782 25.4234639,35.4990589 25.4234639,33.0910959 C25.4234639,30.6863923 28.4371803,28.7217226 32.164464,28.7217226 C35.8956945,28.7217226 38.9078322,30.6863923 38.9078322,33.0910959 C38.9078322,35.4990589 35.8956945,37.4335782 32.164464,37.4335782 L32.164464,37.4335782 Z M38.0237666,18.0851263 C27.4797057,14.4328452 15.6932169,12.9391747 6.15399124,19.8998585 C-1.64236223,25.5771102 -2.35750815,39.6818252 5.89035025,45.5929468 C14.9512333,52.2081225 26.1899172,52.4305841 37.5572642,48.013133 L39.2188339,50.9858062 L61,50.9858062 L61,15 L39.2188339,15 L38.0237666,18.0851263 Z" id="Fill-3" fill="#828182"></path>
                    <g id="Group-7" transform="translate(56.000000, 0.000000)">
                        <mask id="mask-2" fill="white">
                            <use xlink:href="#path-1"></use>
                        </mask>
                        <g id="Clip-6"></g>
                        <path d="M30.4816837,37.4491812 C26.7253087,37.4491812 23.6831963,35.5211187 23.6831963,33.1193687 C23.6831963,30.7216812 26.7253087,28.7635562 30.4816837,28.7635562 C34.2506587,28.7635562 37.2911963,30.7216812 37.2911963,33.1193687 C37.2911963,35.5211187 34.2506587,37.4491812 30.4816837,37.4491812 M56.6243213,19.8325562 C53.0073338,17.1366812 47.5609838,15.0583062 42.4650713,14.8600562 C36.2761088,14.8600562 30.1580213,15.6108062 23.1343088,18.3058687 L23.1445463,13.9663062 L23.1461213,13.9663062 L23.1461213,13.4357437 C20.1874838,12.9124937 17.9155463,10.2450562 17.9155463,7.04949375 C17.9155463,4.03024375 19.9449338,1.48305625 22.6633838,0.76968125 L22.5775463,0.76968125 L16.7728838,0.76968125 L0.10465875,0.76968125 L0.10465875,13.4333062 L7.09057125,13.4333062 C8.13164625,13.4333062 8.95537125,14.2945562 8.95537125,15.3564937 L8.95537125,50.4979312 L8.95537125,51.0349937 L21.7490963,50.9626812 L23.2398338,47.8378062 C24.9943838,48.6592437 30.3501713,50.1509937 33.1292588,50.5710562 C34.9767338,50.8676187 38.4952838,51.1877437 41.3468213,51.1877437 C47.3570213,51.1877437 55.6092338,49.2133687 59.2002338,43.2244312 C60.8823338,40.4302437 62.2281713,36.4839312 62.2281713,33.0714312 C62.2281713,26.9557437 60.2129588,22.8469312 56.6243213,19.8325562" id="Fill-5" fill="#828182" mask="url(#mask-2)"></path>
                    </g>
                    <path d="M134.305102,12.8752239 L134.305102,2.26022388 L140.975729,2.26022388 C143.196626,2.26022388 145.070781,2.52373134 146.333178,3.16567164 C147.632073,3.73865672 148.318417,4.60880597 148.318417,5.63 C148.318417,6.21283582 147.94311,6.79813433 147.524163,7.23238806 C146.945729,7.64201493 146.021347,8.01634328 144.843851,8.20268657 L149,12.8752239 L142.838775,12.8752239 L140.145769,8.85940299 L140.145769,12.8752239 L134.305102,12.8752239 Z M140.145769,4.53574627 L140.145769,7.04686567 C140.829732,7.04686567 141.527184,6.92373134 141.902491,6.72097015 C142.273038,6.53791045 142.466642,6.21283582 142.466642,5.75395522 C142.466642,5.4461194 142.273038,5.04223881 141.902491,4.84522388 C141.527184,4.63179104 140.975729,4.53574627 140.397296,4.53574627 L140.145769,4.53574627 Z M117.072716,7.50574627 C117.072716,5.82455224 117.759853,4.45776119 119.057162,3.48828358 C120.427469,2.52373134 122.434925,2 124.846253,2 C127.337721,2 129.331688,2.47119403 130.578216,3.41522388 C132.010413,4.39701493 132.694376,5.82455224 132.694376,7.58044776 C132.694376,9.23373134 132.010413,10.6128358 130.701996,11.5585075 C129.331688,12.5394776 127.337721,13 124.846253,13 C122.434925,13 120.427469,12.5394776 119.116671,11.5585075 C117.759853,10.6128358 117.072716,9.23373134 117.072716,7.58044776 L117.072716,7.50574627 Z M122.853873,7.3711194 C122.853873,8.46044776 122.972892,9.30514925 123.225212,9.69343284 C123.47912,10.0283582 124.163877,10.2647761 124.846253,10.2647761 C125.581792,10.2647761 126.158638,10.0283582 126.399057,9.69343284 C126.591868,9.30514925 126.843395,8.54992537 126.843395,7.43104478 C126.843395,6.40985075 126.591868,5.56597015 126.399057,5.16865672 C126.158638,4.78283582 125.581792,4.53574627 124.846253,4.53574627 C124.163877,4.53574627 123.599726,4.78283582 123.35772,5.09395522 C123.106987,5.56597015 122.853873,6.40985075 122.853873,7.43104478 L122.853873,7.3711194 Z M105.981718,12.8752239 L105.981718,2.26022388 L111.783505,2.26022388 L111.783505,10.4026866 L116.006304,10.4026866 L116.006304,12.8752239 L105.981718,12.8752239 Z M88.688235,7.50574627 C88.688235,5.82455224 89.3499815,4.45776119 90.6710941,3.48828358 C92.1040847,2.52373134 94.0250538,2 96.5371514,2 C98.9500663,2 100.945621,2.47119403 102.24769,3.41522388 C103.613237,4.39701493 104.29958,5.82455224 104.29958,7.58044776 C104.29958,9.23373134 103.613237,10.6128358 102.376231,11.5585075 C100.945621,12.5394776 98.9500663,13 96.5371514,13 C94.0250538,13 92.1040847,12.5394776 90.7940806,11.5585075 C89.3499815,10.6128358 88.688235,9.23373134 88.688235,7.58044776 L88.688235,7.50574627 Z M94.5281081,7.3711194 C94.5281081,8.46044776 94.6495076,9.30514925 94.9018282,9.69343284 C95.1073346,10.0283582 95.8277972,10.2647761 96.5371514,10.2647761 C97.2004848,10.2647761 97.7749505,10.0283582 98.0161627,9.69343284 C98.2653094,9.30514925 98.5184235,8.54992537 98.5184235,7.43104478 C98.5184235,6.40985075 98.2653094,5.56597015 98.0161627,5.16865672 C97.7749505,4.78283582 97.2004848,4.53574627 96.5371514,4.53574627 C95.8277972,4.53574627 95.200963,4.78283582 94.9748266,5.09395522 C94.7812221,5.56597015 94.5281081,6.40985075 94.5281081,7.43104478 L94.5281081,7.3711194 Z M87.6202365,12.6765672 C87.0560857,12.8120149 86.3713289,12.8752239 85.8881111,12.8752239 C85.4445664,12.9228358 84.8209061,13 84.3876764,13 C83.3315797,13 82.2707224,12.8752239 81.3352318,12.7529104 C80.4092628,12.5394776 79.4610769,12.1561194 78.7874285,11.758806 C77.8392426,11.2473881 77.0441947,10.674403 76.660953,9.94134328 C76.2285168,9.23373134 76,8.41201493 76,7.43104478 C76,5.87626866 76.793461,4.53574627 78.2232778,3.54985075 C79.7237125,2.52373134 81.8160692,2 84.1345623,2 C84.6891915,2 85.4445664,2.05992537 85.8881111,2.05992537 C86.3713289,2.12313433 87.0560857,2.26022388 87.6202365,2.31850746 L87.6202365,4.78283582 C87.3187213,4.78283582 86.8132867,4.63179104 86.50225,4.63179104 C86.1309102,4.60880597 85.6238886,4.53574627 85.4445664,4.53574627 C84.2551684,4.53574627 83.2109737,4.78283582 82.7642551,5.23925373 C82.1390078,5.67761194 81.8160692,6.47059701 81.8160692,7.43104478 C81.8160692,8.33895522 82.1390078,9.0580597 82.6317471,9.56865672 C83.2109737,10.0283582 84.1345623,10.2647761 85.3104715,10.2647761 C85.6238886,10.2647761 86.1309102,10.2130597 86.50225,10.2130597 C86.8132867,10.1539552 87.3187213,10.0283582 87.6202365,9.90358209 L87.6202365,12.6765672 Z" id="Fill-8" fill="#828182"></path>
                </g>
            </g>
        </g>
    </g>
</svg>